<?xml version="1.0" encoding="UTF-8"?>
<svg version="1.1" viewBox="0 0 1080 1080" width="350" height="350" xmlns="http://www.w3.org/2000/svg">
<path transform="translate(533,178)" d="m0 0h17l17 2 17 4 17 7 14 8 11 9 10 9 7 8 10 13 11 20 3 3 28 1 15 3 14 5 17 9 11 9 9 8 11 14 10 15 6 14 4 16 2 16v21l-5 31h53l18 3 12 5 13 9 7 7 7 10 6 12 3 14 2 17 1 35 1 167v71l-1 26-4 24-7 16-8 14-9 10-11 8-14 8-15 6-24 6-13 2h-23l-44-11-30-9-15-2-27 2-20 3-12 6-6 1-22 1h-208l-19-1-6-3-14-1-19 2-42 2h-57l-22-5-12-5-11-6-7-6-10-13-8-17-3-13-1-10-1-193v-112l2-23 4-14 6-11 12-14 8-7 8-5 11-4 9-2 9-1 54-1-6-29v-17l3-20 4-15 7-17 8-14 9-12 11-12 15-12 10-6 18-6 14-2h32l2-5 8-14 7-10 12-13 11-11 13-9 15-8 24-8 12-2z" fill="#061D2B"/>
<path transform="translate(534,211)" d="m0 0h14l16 2 14 4 16 8 11 8 7 6 7 8 8 10 8 14 5 14 3 15-1 7 17-8 13-3h20l15 3 16 8 11 8 11 11 9 14 6 14 3 16v21l-4 17-4 10-7 11-11 13-13 10-16 7-12 3-7 1h-14l-15-3-12-5-11-7-8-7-7-10-6-12-3-8-6 31-3 11 12 3 15 6 19 11 10 6v5l-5-1-15-5-1 1 16 9 5 4 1 5-5-1-10-5-7-1 19 11 3 4v3l-5-1-18-8-13-4-5-1 1 1 21 10 18 10 1 2v7l-2 1-15-6-13-4-23-5h-6l24 7 21 9 11 6 3 4v4l-5-1-12-5-6-2h-4l9 6 11 6 7 6v11l-7-1-26-8-26-5-15-2-35-2h-13l-43 2-32 5-25 6-15 5h-4v-10l3-5 7-5 12-6 4-3-2-1-17 6-4 2h-3v-5l8-5 24-11 23-7 10-2-18 2-27 7-19 7-1-1v-7l7-6 23-12 19-7-14 3-20 7-13 6h-2l1-5 10-6 14-7-7 1-10 3-5 2h-3l1-5 16-9 5-2-1-2-9 2-10 4h-2l1-5 10-6 21-12 18-7 6-1-8-37-2-4-4 14-7 11-8 9-13 9-9 4-13 3-7 1h-12l-17-3-15-6-11-8-10-9-8-10-7-12-5-15-2-12v-15l4-20 5-12 7-12 11-12 9-8 12-7 11-4 11-2h19l12 2 11 4 8 5 3-19 5-16 9-16 9-11 10-10 12-9 15-8 17-5z" fill="#FCFCFC"/>
<path transform="translate(338,360)" d="m0 0 3 1 6 18 7 12 12 12 11 7 10 5 19 4h14l15-3 9-5 7-8 1 3-4 10v2l4-1 7-11 4-10 3-24 2-2 2 4 2 8 6 11 7 9 7 8v2l3 1 5 5 14 9 12 4 8 1h12l13-2 12-5 10-7 5-5 6-4 10-14 8-14 3-6 2 2 3 16 3 10 4 8 4 5 6 3-3-11 16 8 11 3h18l19-5 9-4 11-7 7-7 9-13 5-11 4-12 4 2 7 14 1 5v15l-4 16-6 12-7 9-9 9-12 8-16 6-15 2-16 1-11-2-3 1-13-7-12-10-7-10-6-12-3-8-6 31-3 11 12 3 15 6 19 11 10 6v5l-5-1-15-5-1 1 16 9 5 4 1 5-5-1-10-5-7-1 19 11 3 4v3l-5-1-18-8-13-4-5-1 1 1 21 10 18 10 1 2v7l-2 1-15-6-13-4-23-5h-6l24 7 21 9 11 6 3 4v4l-5-1-12-5-6-2h-4l9 6 11 6 7 6v11l-7-1-26-8-26-5-15-2-35-2h-13l-43 2-32 5-25 6-15 5h-4v-10l3-5 7-5 12-6 4-3-2-1-17 6-4 2h-3v-5l8-5 24-11 23-7 10-2-18 2-27 7-19 7-1-1v-7l7-6 23-12 19-7-14 3-20 7-13 6h-2l1-5 10-6 14-7-7 1-10 3-5 2h-3l1-5 16-9 5-2-1-2-9 2-10 4h-2l1-5 10-6 21-12 18-7 6-1-8-37-2-4-4 14-2 2v-2h-2l-2 5-5 4-6 7-10 8h-3v3l-6 3-4 1h-35l-17-5-10-6-10-9-7-6-7-10-6-12-2-9v-19l3-10 6-10z" fill="#FBFCFC"/>
<path transform="translate(304,455)" d="m0 0 7 1 13 12 14 11 14 8 14 6 18 6 3 5 2 11v59l-1 4-4 4-3 4-7 1 1 10-1 1-1 32-2 3-7 2h-27l-6 1v1h-6l-1-3h-3l-4 4-7 1-5-4-5 2h-38l-19 1-2 4-4 2h-3v2l-4 1 36 2 3 2 1 3v36l-2 3-3 1h-37l-4-3-2-4-1-26-3 3-1 7-1 1v16l2 9v5l-3 4h-2l-2 5-4 12-5 6-3 12-2 1-1-2v-198l1-50 2-8 5-10 10-11 9-5 10-2z" fill="#2D3F4C"/>
<path transform="translate(770,456)" d="m0 0h78l9 3 8 5 7 7 7 14 2 14v154h-2l-2-6h-2l-4-5v-2l-4-2v-2l-4-2-12-10-18-10-1-1-1-15v-7l-5-2-11-8-3-7v-10l2-5v-2l22-11 8-8 6-10 2-5 1-6v-14l-4-10-8-9-8-5-6-2h-15l-10 3-8 6-8 9-5 11-2 9h-1v22l4 14v6l-5 18-4 14-6-1-5-5-5-3v2l-12-2-5-1-7-1-12 1-7 3-4 6-5-1-6-5v-2l-4-2-2-2-1-10 1-26 2-15 4-9 3-6h5v-4l-2-1 4-6 7-5 10-5 4-3 7-4 14-10 10-9z" fill="#2D3F4C"/>
<path transform="translate(387,769)" d="m0 0h307l1 1v53l-1 1h-307l-6-7-1-5v-35l3-6z" fill="#FBFCFC"/>
<path transform="translate(724,735)" d="m0 0h64l1 1 1 11h9l1-11 1-1h66l1 2v61l-2 16-3 10-6 12-7 9-12 12-14 8-10 4-10 2h-20l-15-4-13-7-11-9-10-12-7-14-4-12-2-19v-35l1-23z" fill="#FCFCFC"/>
<path transform="translate(338,360)" d="m0 0 3 1 6 18 7 12 12 12 11 7 10 5 19 4h14l15-3 9-5 7-8 1 3-4 10v2l4-1 7-11 4-10 3-24 2-2 2 4 2 8 6 11 7 9 7 8v2l3 1 5 5 14 9 12 4 8 1h12l13-2 12-5 10-7 5-5 6-4 10-14 8-14 3-6 2 2 3 16 3 10 4 8 4 5 6 3-3-11 16 8 11 3h18l19-5 9-4 11-7 7-7 9-13 5-11 4-12 4 2 7 14 1 5v15l-4 16-6 12-7 9-9 9-12 8-16 6-15 2-16 1-11-2-3 1-13-7-12-10-7-10-6-12-3-8-6 31-3 11-16-3-13-3-10-1h-46l-11 1-21 4-7 2h-4l-8-37-2-4-4 14-2 2v-2h-2l-2 5-5 4-6 7-10 8h-3v3l-6 3-4 1h-35l-17-5-10-6-10-9-7-6-7-10-6-12-2-9v-19l3-10 6-10z" fill="#A8D0EA"/>
<path transform="translate(812,476)" d="m0 0h15l10 4 11 10 5 9 1 4v14l-2 9-5 9-9 10-9 6-11 4-10 3-3 1-2 6-1 2-1 69 18 4 16 8 6 4 7 6 9 12 6 12 4 16 1 28-3 2-65-1v-17l4-3h2l3-9v-29l-3-6-6-4v-16h-7l-3 1v13l-8 8-1 3-1 11v15l2 9 5 5 3 5-1 14-10 1h-55l-1-1v-29l4-16 7-14 11-13 10-8 13-6 21-5v-68l2-9 4-7-10-9-6-12-1-5v-11l3-12 6-11 10-10 8-4z" fill="#F9FBFC"/>
<path transform="translate(197,829)" d="m0 0 5 5 6 9 7 8 8 5 11 3 66 1h402l2 2-3 2h-45l-10 1-3 11 2 1-10 5-6 1-22 1h-208l-19-1-6-3-3-9v-7h-132l-15-2-12-6-9-10-7-14z" fill="#2E404D"/>
<path transform="translate(741,360)" d="m0 0 4 2 7 14 1 5v15l-4 16-6 12-7 9-9 9-12 8-16 6-15 2-16 1-11-2-3 1-13-7-12-10-7-10-6-12-3-8-6 31-3 11-16-3-8-3 1-9 5-20v-5l6-4 10-14 8-14 3-6 2 2 3 16 3 10 4 8 4 5 6 3-3-11 16 8 11 3h18l19-5 9-4 11-7 7-7 9-13 5-11z" fill="#A8D0EA"/>
<path transform="translate(659,769)" d="m0 0h35l1 1v53l-1 1h-307l-6-7 1-4 257-1 1-6-8 1-20 1h-42l-11-1v-2l72-5 15-5 7-9 6-14z" fill="#A8D0EA"/>
<path transform="translate(232,708)" d="m0 0h102l7 3 2 4v34l-5 5h-110l-4-4-1-8v-27l4-5z" fill="#F9FBFC"/>
<path transform="translate(231,585)" d="m0 0h69l4 2 2 4v39l-4 4-3 1h-63l-9-2-3-3-1-4v-33l3-5z" fill="#F9FAFC"/>
<path transform="translate(229,769)" d="m0 0h53l5 3 2 6v33l-2 8-5 5h-50l-7-6-2-7v-32l2-7z" fill="#FAFBFC"/>
<path transform="translate(724,735)" d="m0 0h23l9 1v1h-14l-6 2-2 13v31l4 21 4 10 5 7 4 7 10 9 14 8 12 4 6 1h10l14-5 13-9 4-2 2-4 7-8 7-12 4-10 2-13 1-49 2-1 2 3 1 15v24l-2 25-3 15-8 16-7 9-6 6-15 9-11 4-5 1h-21l-16-5-11-6-12-11-2-6h-2l-5-9v-3l-3-1-5-5-2 2-3-13-1-13v-35l1-23z" fill="#E8F5FB"/>
<path transform="translate(480,452)" d="m0 0h3v3l9 3 3 2-1 5h2l3 1 11 1v4l-12 6-13 4h-3l2 5 12-1 6-2h7l-1 3-5 3-8 6-9 3-6 1-1 8 20-1-2 2-8 2-7-1-15 2-27 7-19 7-1-1v-7l7-6 23-12 19-7-14 3-20 7-13 6h-2l1-5 10-6 14-7-7 1-10 3-5 2h-3l1-5 16-9 5-2-1-2-9 2-10 4h-2l1-5 10-6 21-12 18-7z" fill="#EDF8FC"/>
<path transform="translate(515,708)" d="m0 0h54l7 2 2 3v37l-4 4h-65l-4-6v-34l5-5z" fill="#FAFBFC"/>
<path transform="translate(311,769)" d="m0 0h49l4 3 1 3v41l-7 8h-47l-6-7v-43l3-4z" fill="#FBFCFC"/>
<path transform="translate(327,585)" d="m0 0h38l5 3 2 3v38l-5 5-3 1h-32l-10-2-2-2v-42l4-3z" fill="#F9FBFC"/>
<path transform="translate(589,585)" d="m0 0h41l5 6v39l-3 4-4 1h-34l-9-2-2-5v-38l4-4z" fill="#FAFBFC"/>
<path transform="translate(655,585)" d="m0 0h39l6 3 1 3v38l-2 4-2 1-23 1h-16l-7-2-2-3v-40z" fill="#F9FBFC"/>
<path transform="translate(393,585)" d="m0 0h39l5 5 1 3-1 37-3 4-9 1-36-1-3-3-1-3v-37l5-5z" fill="#F9FBFC"/>
<path transform="translate(523,585)" d="m0 0h39l5 3 2 8v31l-2 5-6 3h-26l-14-1-4-4v-40l3-4z" fill="#F9FBFC"/>
<path transform="translate(459,585)" d="m0 0h38l5 3 2 6-1 37-4 3-9 1-35-1-3-5v-38l4-5z" fill="#F9FBFC"/>
<path transform="translate(604,708)" d="m0 0h37l5 2 2 3 1 5v29l-2 6-2 1h-45l-3-4-1-3v-28l2-7 2-3z" fill="#F8FAFC"/>
<path transform="translate(289,648)" d="m0 0h42l4 3 1 3v35l-2 4-2 1h-45l-3-3v-38z" fill="#F8FAFC"/>
<path transform="translate(436,708)" d="m0 0h34l6 2 3 3 1 9v20l-1 9-4 3h-44l-3-3-1-3v-33l2-5z" fill="#F9FBFC"/>
<path transform="translate(485,648)" d="m0 0h40l5 5 1 30-2 9-4 2h-42l-4-4-1-3v-31l2-5z" fill="#F8FAFC"/>
<path transform="translate(552,648)" d="m0 0h39l5 2 2 5v33l-2 5-3 1h-42l-4-3-1-3v-33l3-5z" fill="#F7FAFB"/>
<path transform="translate(420,648)" d="m0 0h38l5 3 2 5v33l-2 4-3 1h-42l-4-3-1-3v-34l4-5z" fill="#F8FAFC"/>
<path transform="translate(366,708)" d="m0 0h35l6 3 1 3v37l-1 2-3 1h-44l-3-4-1-6v-27l3-7z" fill="#F9FBFC"/>
<path transform="translate(624,648)" d="m0 0h40l4 4 1 3v34l-2 4-3 1h-42l-3-2-2-5v-29l2-7z" fill="#F7FAFB"/>
<path transform="translate(355,648)" d="m0 0h39l5 3 1 2v38l-1 2-3 1h-43l-3-2-1-3v-36l3-4z" fill="#F9FBFC"/>
<path transform="translate(233,648)" d="m0 0h12l21 1 3 2 1 3v36l-2 3-3 1h-37l-4-3-1-3v-33l3-5z" fill="#F9FBFC"/>
<path transform="translate(813,489)" d="m0 0h13l6 3 7 7 2 5v14l-5 10-5 6-7 5-8 3-7 1-9-3-7-8-2-6v-9l4-13 6-8 9-6z" fill="#2D3F4C"/>
<path transform="translate(801,735)" d="m0 0h66l1 2v61l-2 16-3 10-6 12-7 9-12 12-14 8-10 4-10 2h-20l-15-4-13-7-11-9-10-12-7-14-1-8 6 4 3 3 5 10v2h2l5 8 9 8 16 8 11 3h21l12-3 13-7 3-3 5-3 9-10 8-16 3-12 2-15 1-15v-27l-1-12-2-2-1 9h-1v-10l-55-1z" fill="#F2F8FB"/>
<path transform="translate(793,642)" d="m0 0 7 1 1 16 6 4 3 6v29l-3 7-3 3-3 2-1 17-7 2-4-2v-14l-3-5-5-5-2-9v-15l1-11 3-5 6-6v-13z" fill="#081E2C"/>
<path transform="translate(596,462)" d="m0 0h10l24 5 7 1-1-2 5 2 19 11v5l-5-1-15-5-1 1 16 9 5 4 1 5-5-1-10-5-7-1 19 11 3 4v3l-5-1-18-8-13-4-5-1 1 1 21 10 18 10 1 2v7l-2 1-4-2 2-1 3 1-1-7-9-2-10-3-6-2-22-7-5-4 7-2-10-4-15-4-3-2h8l26 5h3l-17-9-5-3-1-4-2-2 4-1h13l-4-3-15-6z" fill="#A8D0EA"/>
<path transform="translate(858,737)" d="m0 0 3 3 1 15v24l-2 25-3 15-8 16-7 9-6 6-15 9-11 4-5 1h-21l-16-5-11-6-12-11-3-6 1-2 6 7 10 8 12 6 14 4h21l14-4 7-4h2l1-3h2l-1-2-4 1h-3l-14 5-5 1h-15l-14-3-12-5-11-7-9-10-6-10-5-14v-5l4 2 5 13 5 7 4 7 10 9 14 8 12 4 6 1h10l14-5 13-9 4-2 2-4 7-8 7-12 4-10 2-13 1-49z" fill="#A7CFE9"/>
<path transform="translate(724,585)" d="m0 0h30l5 5 1 3v18l-5 3-15 8-14 10-3 2h-4l-4-10v-33l1-3z" fill="#A8D0EA"/>
<path transform="translate(494,414)" d="m0 0 6 4 14 9 12 4 8 1h12l13-2 12-5 10-7 6-4-1 7-6 26-15-1h-46l-18 1-7-29z" fill="#0A202E"/>
<path transform="translate(464,514)" d="m0 0 4 1-3 2 1 3h8l9-2 15-1h14l3 1-1 5h-2l-1 5-18 4-20 3-23 7-18 7-7 2v-2l-4 1 2-4 7-5 12-6 4-3-2-1-17 6-4 2h-3v-5l8-5 24-11z" fill="#A8D0EA"/>
<path transform="translate(613,514)" d="m0 0 9 2 16 6 19 9 4 5v4l-5-1-12-5-6-2h-4l9 6 11 6 7 6-1 2-4-1-7-1-15-8-31-8-23-3-6-3 1-2h4l-1-5h-8l-2-1v-2l3-1h24l12 2h14v-2l-6-1z" fill="#A8D0EA"/>
<path transform="translate(613,755)" d="m0 0 13 1 11 3 8 2 6 2v2l14 1 1 2h-70l-97-1 5-5h2v-2l3-2 17-2h36l10 4 17 2 12-3 6-2z" fill="#05111C"/>
<path transform="translate(668,709)" d="m0 0h26v46l-25-1-4-4-1-4v-32z" fill="#A8D0EA"/>
<path transform="translate(735,727)" d="m0 0h55l4 1 1-1h65l8 1v6l-9 1-58 1-2 11-6 1-3-1-2-11h-41l-24-1-1-6z" fill="#091722"/>
<path transform="translate(583,401)" d="m0 0 1 4-6 9-7 7-8 6-8 3-12 1 3 2h-12l-11-2-13-5 2-2-3-5-4-4-3-7-2-4 4 1 13 8 13 4 6 1h10l14-3 12-6z" fill="#A8D0EA"/>
<path transform="translate(481,461)" d="m0 0h5l-3 3-14 6-2 5 16-3 10-1-1 2-12 3h-2v3l4 1-18 7-16 5-4-1 1-1-7 1-10 3-5 2h-3l1-5 16-9 5-2-1-2-12 2 5-4 12-7 12-4z" fill="#A8D0EA"/>
<path transform="translate(637,797)" d="m0 0 4 1-10 3-61 4h-11v2h53l28-1v6l-1 1-257 1 1-2 120-1 55-1-1-1-13-2v-2l2-1 53-3 30-2z" fill="#F3FCFE"/>
<path transform="translate(801,735)" d="m0 0h66l1 2v61l-2 16-3 10-6 12-4 4v-2l-5 1-3 2 10-20 3-12 2-15 1-15v-27l-1-12-2-2-1 9h-1v-10l-55-1z" fill="#E6F4FA"/>
<path transform="translate(706,648)" d="m0 0h5l-1 4-7 12-5 15-4 16-7-2-3-2-1-3v-36l2-2 5-1z" fill="#A9D0EA"/>
<path transform="translate(733,814)" d="m0 0h2l2 4h2l7 11 7 8 11 7 12 5 14 3h15l14-4 9-3h3l2 1-4 5-12 6-11 3h-21l-14-4-12-6-14-12-2-3-2 1-7-14z" fill="#E0F1F9"/>
<path transform="translate(577,484)" d="m0 0h10l7 1v1l-5 1 24 7 2 2-6 3 8 4 17 5 6 2 10 3 9 3 1 7-10-2-15-5-27-6h-6v1l-9-1-7-3v-1h9l8 1-2-6-5-2-9-7-5-3z" fill="#EDF8FC"/>
<path transform="translate(855,798)" d="m0 0h1l-1 10-5 13-6 9-6 7-14 10-14 5-5 1h-15l-14-3-12-5-11-7-9-10-6-10-5-14v-5l4 2 5 13 5 7 4 7 10 9 14 8 12 4 6 1h10l14-5 13-9 4-2 2-4 7-8 7-12z" fill="#122634"/>
<path transform="translate(753,382)" d="m0 0h1l1 23-4 11-1 5-3 3-2 6-1 4-8 9-14 10-14 6-12 3-7 1h-14l-15-3-3-1v-2l-2-1 16 2 22-2 12-3 11-5 12-8 10-10 8-13 5-15z" fill="#F1FAFD"/>
<path transform="translate(480,510)" d="m0 0h9l2 3 32 3 12 4 3 3-1 3-9 3-54 7-4-1 15-3 23-4 3-1 1-4 2-1 1-4h-17l-15 1-11 2h-6l-2-4 4-2v-2z" fill="#F1FAFD"/>
<path transform="translate(331,414)" d="m0 0h2l6 10 5 7 8 7 9 8 12 6 14 4h35l10-3v-3l5-3 8-6 3-4h2l2-4 5-5 1-2h2l-1 5-8 11-9 8-14 8-16 4-7 1h-12l-17-3-8-3 2-1v-2l-4-1-5-4-5-3-9-7-3-3v-3h-2l-4-6v-2l-3-1-4-8z" fill="#E9F6FB"/>
<path transform="translate(224,813)" d="m0 0 4 1 2-1h49l3 1 1 5-1 1h-11l1 2h9 3l-2 2h-50l-7-6z" fill="#A8D0EA"/>
<path transform="translate(739,807)" d="m0 0 3 3 2 6 3 1 4 5v2l4 2v2l20 10 13 3h13l17-3h5l-2 2 2 2-8 5-12 4h-10l-16-4-13-7-10-8-7-8-5-9-3-6z" fill="#ABD2EA"/>
<path transform="translate(602,511)" d="m0 0 8 1 3 1v2l8 2v2l-4 1h-10l-12-2h-27v2l10 1 1 5-4 2 5 2 28 4 10 3-4 1-12-3-26-3-9-2-19-2-4-4 5-5 9-3 10-1h22l13 1 2-2z" fill="#F3FCFE"/>
<path transform="translate(319,813)" d="m0 0h38l1 1v5l-5 2 3 1 4-1-2 3h-47l-6-7 1-2z" fill="#A8D0EA"/>
<path transform="translate(724,585)" d="m0 0h19l-2 4-8 9-8 10-6 10h-2v3h-2v-30l1-3z" fill="#F9FBFC"/>
<path transform="translate(482,247)" d="m0 0v3l-9 11-9 14-5 14-2 11v18l3 10v7l-3-3-8-14-1-1v-10l5-20 5-13 8-12 8-9z" fill="#A8D0EA"/>
<path transform="translate(496,485)" d="m0 0h5l-3 2-30 8h-2v2h13l-1 2-18 6-17 6-11 4-7 3h-3l-1 5 3 1-3 1-1-1v-7l7-6 23-12 19-7-10 2-4-1 16-4z" fill="#A8D0EA"/>
<path transform="translate(257,755)" d="m0 0h19l1 3 1 5 2 5-51 1v-2l9-1 1-3 8-7z" fill="#05111C"/>
<path transform="translate(847,467)" d="m0 0 8 1 8 7 6 9 2 6v34h-7l-1-32-2-7-7-8-8-7z" fill="#F0F7FA"/>
<path transform="translate(577,466)" d="m0 0 9 1 21 5v-3l-2-2 6 1 6 4v1h-18l3 3 1 4 22 11v1l-10-1-21-4v-2l6 1 1-3-19-8-4-3v-2h-2z" fill="#F3FCFE"/>
<path transform="translate(742,834)" d="m0 0 5 5 12 10 12 6 14 4h21l14-4 12-6 3 1-10 7-11 5-9 2h-21l-16-5-11-6-12-11-3-6z" fill="#2C3F4C"/>
<path transform="translate(539,542)" d="m0 0h13l35 2 5 2v1h-96v-3z" fill="#0E1D29"/>
<path transform="translate(730,739)" d="m0 0 4 1 1 3-1 9v31l3 18-4-2v5l-2-4-3-14v-45z" fill="#A8D0EA"/>
<path transform="translate(601,452)" d="m0 0 18 5 12 5 5 3 2 4-8-1-24-5h-8l1 2-7-1-7-3v-2h13l3-2z" fill="#EDF8FC"/>
<path transform="translate(708,297)" d="m0 0h4l1 2h6l1 3 7 2 3 3v2h2v2l4 2 5 4v3l4 2 5 5v3l3 1 3 6 5 6 2 5v9l-2 2-4-10-8-16-8-10-9-9-14-9-12-6z" fill="#0A1823"/>
<path transform="translate(855,798)" d="m0 0h1l-1 10-5 13-6 9-6 7-14 10-9 1v-2l11-7 6-5h2l2-4 7-8 7-12z" fill="#122533"/>
<path transform="translate(490,391)" d="m0 0 4 2 1 3 4 2 9 8 11 6 7 3-3 1-10-4-10-7h-2l4 7 3 5 4 4 1 4-6-1-12-9 3-1v-6l-6-11z" fill="#EFF9FC"/>
<path transform="translate(229,468)" d="m0 0h6l1 5-12 6-6 7-4 6-3 1-1-7 6-10 10-7z" fill="#E8F2F8"/>
<path transform="translate(702,454)" d="m0 0m-3 1h3l-1 6-12 2h-14l-15-3-3-1v-2l-2-1 16 2 22-2z" fill="#E5F3FA"/>
<path transform="translate(467,491)" d="m0 0h5l-3 2-19 7-23 12h-3l-2-5 18-8 15-5z" fill="#12232F"/>
<path transform="translate(583,407)" d="m0 0 4 5-3 5-13 9-12 5-4 1h-20v-1l20-2 8-3 11-9z" fill="#E7F5FA"/>
<path transform="translate(727,817)" d="m0 0 6 4 3 3 5 10v2h2l4 8h-8l-7-10-5-12z" fill="#F5F9FB"/>
<path transform="translate(444,523)" d="m0 0h5v3l-6 4h-3v2l-17 7h-3v-5l8-5 8-4z" fill="#E5F4FA"/>
<path transform="translate(742,834)" d="m0 0 5 5 12 10 12 6 13 5-2 2-9-1-16-8-12-11-3-6z" fill="#132836"/>
<path transform="translate(626,520)" d="m0 0 8 2 16 7 8 3 3 4v4l-5-1-4-2-3-3-12-5-4-3v-2h-5l-3-3z" fill="#EAF6FB"/>
<path transform="translate(463,391)" d="m0 0h1l-1 8-7 14-5 6-4-1 2-6 2-8v-3l3-4h2v3l5-3z" fill="#F3FCFE"/>
<path transform="translate(458,426)" d="m0 0h2l-1 5-8 11-9 8-10 6h-2l2-6 5-3 8-6 3-4h2l2-4 5-5z" fill="#E0F0F8"/>
<path transform="translate(767,842)" d="m0 0 6 2 10 4 10 2h10l9-3h9l-4 3-12 3h-15l-14-3-12-5z" fill="#2E404D"/>
<path transform="translate(453,761)" d="m0 0 13 1 7 3 10 1v1h-43l4-3z" fill="#05111C"/>
<path transform="translate(834,527)" d="m0 0 1 2-4 5-7 5-8 3-7 1-9-3-2-3 9 1 2 1 1-2h3l8-3h5l2-4z" fill="#0B202E"/>
<path transform="translate(632,541)" d="m0 0 6 2 13 7h7l3 2v9l-7-1-6-2 3-2v-3l-14-7-5-3z" fill="#EAF7FB"/>
<path transform="translate(618,393)" d="m0 0 2 3 3 7 5 1 1-3 5 7h-2l3 7v4l-4-1-5-5-4-5-4-11z" fill="#F3FCFE"/>
<path transform="translate(701,591)" d="m0 0 2 1v32l1 4h10l2-4 2 8-9 3-4-1-3-3-2 1z" fill="#2D3F4C"/>
<path transform="translate(461,243)" d="m0 0 3 1-2 4-9 13-7 12h-1l1-9 6-13h2v-3l6-4z" fill="#091621"/>
<path transform="translate(619,493)" d="m0 0 13 3 20 8 2 2h-5l-1 2 5 2-2 1-21-11-11-5z" fill="#2D3F4C"/>
<path transform="translate(534,540)" d="m0 0h20l23 2 3 2-28-1h-13l-36 1v-1l17-2z" fill="#D7EBF6"/>
<path transform="translate(839,829)" d="m0 0h4l-2 4-5 5-10 8-8 2h-3v-2l11-7 8-6z" fill="#0A1925"/>
<path transform="translate(598,509)" d="m0 0h10l27 6 6 2-3 1-8-2v2l4 2-6-1-22-7-8-2z" fill="#2E404D"/>
<path transform="translate(668,708)" d="m0 0h27l1 2 1 41-2 4h-1v-46h-26z" fill="#2E404D"/>
<path transform="translate(482,508)" d="m0 0h5l-2 2-21 5-19 7-6 3-3-1 10-5 5-3h6v-2l-2-1 17-4z" fill="#2E404D"/>
<path transform="translate(602,511)" d="m0 0 8 1 3 1v2l8 2v2l-4 1h-10l-12-2-1-2h9l2-2z" fill="#EBF7FC"/>
<path transform="translate(646,296)" d="m0 0h6l3 1 3-1 3 1v2l-16 8h-3l1-10z" fill="#0A1723"/>
<path transform="translate(638,489)" d="m0 0 8 1 15 7 1-3v6h-2l2 4v5l-4-1h3l-3-6-19-11z" fill="#2B3D4A"/>
<path transform="translate(435,295)" d="m0 0 4 1v12l-14-7-3-1v-2l8-1z" fill="#0B1823"/>
<path transform="translate(533,440)" d="m0 0h6l3 1 17 1 3 2-47 1 1-2z" fill="#05111C"/>
<path transform="translate(740,844)" d="m0 0h8l4 5v4h2l1 2 5 3 2 5-7-4-10-8-5-6z" fill="#E6F4FA"/>
<path transform="translate(567,588)" d="m0 0h2l2 3v33l-3 9-2-1 2-7v-31z" fill="#2E404D"/>
<path transform="translate(667,650)" d="m0 0 4 4 1 7v20l-2 9-2 2v-37z" fill="#2E404D"/>
<path transform="translate(364,775)" d="m0 0h1v41l-4 5-7 2-2-2 6-2-1-6 6-1z" fill="#EAF7FB"/>
<path transform="translate(365,262)" d="m0 0 5 1-4 3-13 4-1 2-7 1v2l-4 2-4-1 14-9z" fill="#344755"/>
<path transform="translate(364,772)" d="m0 0 2 2 1 9 1 28-4 9-3 3-2-1 5-6z" fill="#2E404D"/>
<path transform="translate(438,477)" d="m0 0 4 1v2l-17 10-2-1 1-2 6-3 1-1-3-1-2 4-4-2 2-2z" fill="#2E404D"/>
<path transform="translate(444,530)" d="m0 0 3 2-9 6-5 3h-3l1-3h-6l2-2z" fill="#1C303E"/>
<path transform="translate(788,622)" d="m0 0 2 1v13l-1 1h-7l2-11z" fill="#0C1925"/>
<path transform="translate(733,799)" d="m0 0 4 2 4 11 1 8-2 2-6-14z" fill="#293B49"/>
<path transform="translate(473,662)" d="m0 0h2l2 7v11l-5-1-1-9v-3z" fill="#05111C"/>
<path transform="translate(733,814)" d="m0 0h2l2 4h2l1 8h2l1 6-2 4-7-14z" fill="#AAD0E9"/>
<path transform="translate(619,703)" d="m0 0h6 2 10l2 4h-26v-1l5-1z" fill="#05111C"/>
<path transform="translate(502,215)" d="m0 0m-4 1h4l-1 3-15 8-9 7-4 1 4-5 5-4z" fill="#0E1C28"/>
<path transform="translate(534,209)" d="m0 0h18l12 1 4 3h-9l-27-2z" fill="#0B1824"/>
<path transform="translate(276,639)" d="m0 0h5l4 1v2h-2l-2 4-2 2h-5l-1-7z" fill="#2E404D"/>
<path transform="translate(461,649)" d="m0 0 3 1 3 5v34l-3 3v-36z" fill="#2E404D"/>
<path transform="translate(633,531)" d="m0 0 8 1 13 5-3 1h-3l-1 2-5-2-8-5z" fill="#2E404D"/>
<path transform="translate(488,545)" d="m0 0h7l1 2-5 2h-15l-1 1h-11v-1z" fill="#142330"/>
<path transform="translate(441,489)" d="m0 0h5l-2 3-13 6-4-2-1-2 7-3z" fill="#2D3F4C"/>
<path transform="translate(472,443)" d="m0 0h3l1 10-9 2 3-9z" fill="#0D1B27"/>
<path transform="translate(287,811)" d="m0 0h1v6l-3 4-4 2h-9l-1-3 11-1v-6l5 1z" fill="#F3FCFE"/>
<path transform="translate(435,486)" d="m0 0 2 1-3 1v2l-4 1v2l-7 3h-3l1-5 11-4z" fill="#DBEEF7"/>
<path transform="translate(303,703)" d="m0 0 22 3v1h-35v-1l10-2z" fill="#05111C"/>
<path transform="translate(436,546)" d="m0 0 4 1-18 9-2 3v-8l5-2 1 1z" fill="#E9F6FB"/>
<path transform="translate(224,812)" d="m0 0h55v1l-49 1-4 1z" fill="#F3FCFE"/>
<path transform="translate(636,477)" d="m0 0 8 1 11 4-3 4-5-2-11-6z" fill="#2D3F4C"/>
<path transform="translate(649,475)" d="m0 0 6 1 5 3v5l-5-1-2-1v-2l-5-2z" fill="#DFF0F8"/>
<path transform="translate(589,392)" d="m0 0h1l-1 7-5 8-1-2v-3l-4 3-2-1 8-8z" fill="#F3FCFE"/>
<path transform="translate(287,772)" d="m0 0 3 3 1 4v22l-2 17-2 1 1-8v-33z" fill="#2E404D"/>
<path transform="translate(855,798)" d="m0 0h1l-1 10-5 13-2-1 2-8 3-9z" fill="#2B3E4B"/>
<path transform="translate(400,653)" d="m0 0h1l1 12v9l1 6h-2l1 9-2 4-1-2z" fill="#2E404D"/>
<path transform="translate(467,491)" d="m0 0h5l-3 2-19 7-2-1v-3z" fill="#2E404D"/>
<path transform="translate(507,440)" d="m0 0 7 2 1 2 4 2h-17v-3l5-1z" fill="#0C1925"/>
<path transform="translate(593,693)" d="m0 0 3 1-1 2-5 1-1-1-38-1v-1z" fill="#2E404D"/>
<path transform="translate(827,838)" d="m0 0 2 1-2 6-3 2-9 1v-2l11-7z" fill="#162A38"/>
<path transform="translate(835,828)" d="m0 0 2 2-5 5-7 6h-5l1-2h2l1-3 9-6z" fill="#E6F4FA"/>
<path transform="translate(747,817)" d="m0 0 7 6 14 10 3 3-9-3-7-5-7-8z" fill="#F3FCFE"/>
<path transform="translate(669,294)" d="m0 0h21v2l-26 1 2-2z" fill="#0F1E2A"/>
<path transform="translate(647,486)" d="m0 0h5l8 6 1 5h-3l-4-4-7-6z" fill="#DAEDF7"/>
<path transform="translate(303,632)" d="m0 0m-1 1v3l-5 1h-28l-7-1v-1l37-1z" fill="#2E404D"/>
<path transform="translate(586,506)" d="m0 0h9l13 2v1l-6 1v1l-9-1-7-3z" fill="#A8D0EA"/>
<path transform="translate(742,834)" d="m0 0 5 5 7 6 1 4h-3l-7-7-3-6z" fill="#2D3F4C"/>
<path transform="translate(668,709)" d="m0 0 5 1-6 10h-2v-8z" fill="#EBF7FB"/>
<path transform="translate(560,427)" d="m0 0 2 1v2l-7 2h-20v-1l20-2z" fill="#DAEDF7"/>
<path transform="translate(583,504)" d="m0 0 15 1 5 2-3 1-5-1h-8v1l-10-1v-2z" fill="#F3FCFE"/>
<path transform="translate(450,294)" d="m0 0h1l-1 10-2 13-2-1-1-6z" fill="#F3FCFE"/>
<path transform="translate(284,650)" d="m0 0 2 1-1 2-1 37h-1l-1-38z" fill="#2E404D"/>
<path transform="translate(455,634)" d="m0 0h35v1l-15 1h-13l-3 1z" fill="#2E404D"/>
<path transform="translate(333,649)" d="m0 0 3 1 2 4-1 34h-1l-1-34z" fill="#2E404D"/>
<path transform="translate(502,504)" d="m0 0h8v2l-12 3h-5l4-2-3-2z" fill="#F3FCFE"/>
<path transform="translate(777,637)" d="m0 0 4 1-18 6-4 1 1-3 12-4z" fill="#12202C"/>
<path transform="translate(514,596)" d="m0 0h1l1 5v11h-2l-2-12z" fill="#05111C"/>
<path transform="translate(493,506)" d="m0 0h6l-2 2-8 2-7-1h-9v-1z" fill="#A8D0EA"/>
<path transform="translate(805,664)" d="m0 0h3l2 5v7l-5-3v-6z" fill="#0B1824"/>
<path transform="translate(842,652)" d="m0 0 4 2 4 4v2h2l5 7-1 3-7-9-5-5z" fill="#101E29"/>
<path transform="translate(651,500)" d="m0 0 7 1 3 4v3h-4v-3l-4-2z" fill="#D8ECF7"/>
<path transform="translate(753,846)" d="m0 0 5 2 7 4-3 3-5-2-3-4z" fill="#152937"/>
<path transform="translate(423,533)" d="m0 0h8l-1 3-7 3h-3l1-4z" fill="#EDF6FB"/>
<path transform="translate(598,707)" d="m0 0 2 1-2 5h-2v3h-2l-1-5 1-3z" fill="#091722"/>
<path transform="translate(839,829)" d="m0 0m-1 1m-1 1m-1 1m-2 1 2 1-5 6-2 4-2-2 2-5z" fill="#0D1C28"/>
<path transform="translate(287,811)" d="m0 0h1v6l-4 4-2-5 1-3 4 1z" fill="#E0F1F9"/>
<path transform="translate(866,810)" d="m0 0 4 1-1 5-4 5v-7z" fill="#0C1A26"/>
<path transform="translate(740,434)" d="m0 0h2l-2 5-4 4-3-1 1-3z" fill="#EBF4F9"/>
<path transform="translate(520,210)" d="m0 0h12l2 2-15 1z" fill="#13222E"/>
<path transform="translate(379,768)" d="m0 0h5l-1 4-5 1-2-1 1-3z" fill="#07141F"/>
<path transform="translate(798,537)" d="m0 0 9 1 1 2 3 2-2 1-9-3z" fill="#0D222F"/>
<path transform="translate(420,508)" d="m0 0 4 1 1 3-1 2h-5z" fill="#06141F"/>
<path transform="translate(594,727)" d="m0 0h1v13l-3-3 1-9z" fill="#05111C"/>
<path transform="translate(502,215)" d="m0 0m-4 1h4l-1 3-6 3h-2l2-4z" fill="#0B1924"/>
<path transform="translate(696,683)" d="m0 0 2 4-1 7-3 1z" fill="#2E404D"/>
</svg>
