<svg xmlns="http://www.w3.org/2000/svg" version="1.1" viewBox="-5.0 -10.0 110.0 135.0" fill="#10b981">
 <g>
  <path d="m21.719 85.156-10.781-15.156-0.15625-0.15625-0.15625-0.3125-7.3438 5.1562 13.594 18.906 7.3438-5.1562-2.3438-3.125z"/>
  <path d="m67.656 65-13.281 9.5312 0.3125 0.625c0.3125 1.0938 0.15625 2.3438-0.625 3.2812-0.625 0.78125-1.5625 1.0938-2.5 1.0938h-0.46875l-14.844-2.1875c-0.78125-0.15625-1.4062-0.9375-1.25-1.7188s0.9375-1.4062 1.7188-1.25l14.844 2.1875c0.15625 0 0.3125 0 0.3125-0.15625 0 0 0.15625-0.15625 0-0.3125l-0.625-1.7188c-0.9375-2.1875-2.8125-3.75-5.3125-4.0625l-2.6562-0.3125c-3.9062-0.625-7.6562-2.1875-10.625-4.8438-3.75-3.125-9.2188-3.2812-13.125-0.15625l-5.4688 4.375 9.6875 13.594 25.469 5c1.4062 0.3125 2.8125 0 3.9062-0.78125l28.906-20.781c-3.5938-4.0625-9.8438-4.6875-14.375-1.4062z"/>
  <path d="m98.438 47.656h-15.938c-0.78125-15.156-12.188-27.656-27.031-29.844 0.9375-1.25 1.5625-2.6562 1.5625-4.375 0-3.9062-3.125-7.0312-7.0312-7.0312s-7.0312 3.125-7.0312 7.0312c0 1.5625 0.625 3.125 1.5625 4.375-14.844 2.1875-26.25 14.688-27.031 29.844h-15.938c-0.78125 0-1.5625 0.625-1.5625 1.5625 0 0.78125 0.625 1.5625 1.5625 1.5625h96.875c0.78125 0 1.5625-0.625 1.5625-1.5625s-0.625-1.5625-1.5625-1.5625z"/>
  <path d="m84.375 54.844h-68.75c-0.78125 0-1.5625 0.625-1.5625 1.5625s0.625 1.5625 1.5625 1.5625h68.75c0.78125 0 1.5625-0.625 1.5625-1.5625s-0.78125-1.5625-1.5625-1.5625z"/>
 </g>
</svg>